<?xml version="1.0" encoding="utf-8"?>
<!-- Generator: Adobe Illustrator 21.1.0, SVG Export Plug-In . SVG Version: 6.00 Build 0)  -->
<svg version="1.1" id="圖層_2" xmlns="http://www.w3.org/2000/svg" xmlns:xlink="http://www.w3.org/1999/xlink" x="0px" y="0px"
	 viewBox="0 0 202.5 45" style="enable-background:new 0 0 202.5 45;" xml:space="preserve">
<style type="text/css">
	.st0{fill:#FFFFFF;}
</style>
<g>
	<g>
		<path class="st0" d="M67.3,16.2c-0.9-0.7-1.9-1-2.9-1c-1.2,0-2.4,0.6-3.1,1.6c-0.7,1-1,2.5-1,4.6c0,2.5,0.2,3.8,0.8,4.8
			c0.7,1.3,1.9,2,3.5,2c1.1,0,2-0.3,3.1-1.2l1.7,2.3c-1.4,1.2-3,1.7-5,1.7c-2.5,0-4.4-0.8-5.9-2.5c-1.5-1.6-2.2-3.8-2.2-6.5
			c0-2.3,0.4-4,1.2-5.6c1.4-2.6,4-4.2,6.9-4.2c1.8,0,3.6,0.6,4.6,1.4L67.3,16.2z"/>
		<path class="st0" d="M75.2,13.8c0,1.2-1,2.2-2.2,2.2c-1.2,0-2.1-1-2.1-2.2s1-2.2,2.2-2.2C74.3,11.7,75.2,12.6,75.2,13.8z
			 M74.8,17.1v13.6h-3.5v-13L74.8,17.1z"/>
		<path class="st0" d="M79.8,17.2l1.9,6c0.3,0.9,0.7,2.3,0.9,3.2c0.1-0.8,0.4-2,0.8-3.4l1.8-5.6h3.6L84,30.7h-2.9l-4.8-13.1
			L79.8,17.2z"/>
		<path class="st0" d="M94.4,13.8c0,1.2-1,2.2-2.2,2.2c-1.2,0-2.1-1-2.1-2.2s1-2.2,2.2-2.2C93.5,11.7,94.4,12.6,94.4,13.8z M94,17.1
			v13.6h-3.5v-13L94,17.1z"/>
		<path class="st0" d="M104.9,20.9c-0.7-0.6-1.5-1-2.1-1c-1.6,0-2.3,1.3-2.3,4.5c0,1.7,0.2,2.8,0.7,3.3c0.4,0.5,1,0.8,1.6,0.8
			c0.8,0,1.5-0.3,2.4-1.1l0.2-0.2l1.6,2.1c-0.5,0.5-0.8,0.7-1.2,1c-0.9,0.5-2,0.8-3.2,0.8c-3.7,0-5.8-2.5-5.8-6.8
			c0-3.1,1.2-5.1,2.7-6.1c0.9-0.6,2.2-1,3.3-1c0.9,0,1.8,0.2,2.6,0.6c0.5,0.3,0.7,0.4,1.3,0.9L104.9,20.9z"/>
		<path class="st0" d="M120.6,12.7l-0.6,3h-4.3v15H112v-15h-4.4v-3H120.6z"/>
		<path class="st0" d="M130.5,29.2c-1.5,1.2-3.1,1.8-5,1.8c-3.8,0-6.3-2.7-6.3-6.9c0-2.4,0.5-4,1.7-5.3c1.1-1.2,2.4-1.8,4.2-1.8
			c1.5,0,3,0.5,3.8,1.4c1.2,1.2,1.8,3,1.8,5.8c0,0.3,0,0.6,0,0.8H123v0.1c0,2,1,3.2,2.8,3.2c1.2,0,2.3-0.4,3.4-1.3L130.5,29.2z
			 M127.1,22.6v-0.2c0-1-0.1-1.5-0.4-2c-0.3-0.5-0.8-0.8-1.5-0.8c-1.3,0-2.1,1-2.1,2.9v0.1H127.1z"/>
		<path class="st0" d="M140.7,20.9c-0.7-0.6-1.5-1-2.1-1c-1.6,0-2.3,1.3-2.3,4.5c0,1.7,0.2,2.8,0.7,3.3c0.4,0.5,1,0.8,1.6,0.8
			c0.8,0,1.5-0.3,2.4-1.1l0.2-0.2l1.6,2.1c-0.5,0.5-0.8,0.7-1.2,1c-0.9,0.5-2,0.8-3.2,0.8c-3.7,0-5.8-2.5-5.8-6.8
			c0-3.1,1.2-5.1,2.7-6.1c0.9-0.6,2.2-1,3.3-1c0.9,0,1.8,0.2,2.6,0.6c0.5,0.3,0.7,0.4,1.3,0.9L140.7,20.9z"/>
		<path class="st0" d="M148,11.5c0.2,0.7,0.2,2,0.2,3.2v2.6c0,0.4-0.1,1-0.1,1.1c0.9-0.9,2.4-1.4,3.8-1.4c1.7,0,3,0.7,3.4,1.9
			c0.3,0.8,0.3,1.2,0.3,2.5v9.3h-3.4v-8.9c0-1.3-0.4-1.8-1.3-1.8c-0.9,0-2,0.5-2.7,1.2v9.5h-3.5V15.4c0-1.2-0.1-2.5-0.3-3L148,11.5z
			"/>
		<path class="st0" d="M169.4,12.7l-0.4,2.9h-5.7v4.1h4.6v3h-4.6v8h-3.6v-18H169.4z"/>
		<path class="st0" d="M181,29.2c-1.5,1.2-3.1,1.8-5,1.8c-3.8,0-6.3-2.7-6.3-6.9c0-2.4,0.5-4,1.7-5.3c1.1-1.2,2.4-1.8,4.2-1.8
			c1.5,0,3,0.5,3.8,1.4c1.2,1.2,1.8,3,1.8,5.8c0,0.3,0,0.6,0,0.8h-7.7v0.1c0,2,1,3.2,2.8,3.2c1.2,0,2.3-0.4,3.4-1.3L181,29.2z
			 M177.5,22.6v-0.2c0-1-0.1-1.5-0.4-2c-0.3-0.5-0.8-0.8-1.5-0.8c-1.3,0-2.1,1-2.1,2.9v0.1H177.5z"/>
		<path class="st0" d="M191.7,20.7c-1.3-0.7-2.3-1-3.3-1c-1,0-1.7,0.5-1.7,1.3c0,0.7,0.4,1,1.7,1.3l1.6,0.4c1.6,0.4,2.2,0.9,2.6,1.5
			c0.5,0.6,0.7,1.4,0.7,2.3c0,2.7-2.3,4.6-5.7,4.6c-1.6,0-3.4-0.5-5.4-1.5l1.2-2.5c1.1,0.6,2.9,1.5,4.4,1.5c1,0,1.8-0.6,1.8-1.5
			c0-0.9-0.6-1.4-2-1.6l-1.6-0.3c-0.9-0.2-2-0.8-2.4-1.3c-0.5-0.6-0.8-1.5-0.8-2.4c0-2.6,2-4.3,5.1-4.3c2.1,0,3.5,0.6,4.7,1.2
			L191.7,20.7z"/>
		<path class="st0" d="M201.5,19.8h-2.2v6.7c0,1.7,0.3,2.1,1.5,2.1c0.3,0,0.6-0.1,1.2-0.3l0.4,2.1c-1,0.4-1.9,0.6-2.8,0.6
			c-1.8,0-3.2-0.8-3.6-1.9c-0.2-0.6-0.2-0.8-0.2-2v-7.2h-1.3v-2.4h1.3c0-1.3,0-2.2,0.1-3.1l3.5-0.9c-0.1,1.2-0.2,2.7-0.2,4h3.1
			L201.5,19.8z"/>
	</g>
	<g>
		<path class="st0" d="M39.4,7.7L36,11.2c1.2,1.8,1.8,3.9,1.7,5.9c-0.2,2.2-1.2,4.2-3,5.6C31.9,25,28.6,26,25.4,27c0,0,0,0-0.1,0
			c0.5,2.7,0.2,5.4-2.1,7.9c-1.7,1.7-4,2.7-6.3,2.7c-1.8,0-3.6-0.5-5.1-1.6c-1.1,1.1-2.5,2.4-3.9,3.6C11.9,43,17,45,22.5,45
			C34.9,45,45,34.9,45,22.5C45,16.8,42.9,11.7,39.4,7.7z"/>
		<path class="st0" d="M24.6,24c3-0.9,5.8-1.8,8.1-3.7c1.1-0.9,1.7-2.1,1.9-3.4c0.1-1.2-0.2-2.4-0.9-3.5l-4.1,3.7
			c-1.9,1.9-4,3.1-6,3.9c0.1,0.5,0.3,0.9,0.5,1.4C24.3,22.9,24.4,23.5,24.6,24z"/>
		<path class="st0" d="M9.6,33.9c-2.8-3.6-2.5-8.1,0.8-11.5c1.7-1.7,4.2-2.3,6.9-2.9c0.8-0.2,1.7-0.4,2.5-0.6c-0.6-3-0.3-6,2.4-8.7
			c1.9-1.9,4.4-2.9,7-2.8C31,7.5,32.6,8,33.9,9l3.4-3.4C33.4,2.1,28.2,0,22.5,0C10.1,0,0,10.1,0,22.5c0,5.8,2.2,11.1,5.8,15.1
			C7.1,36.3,8.5,35,9.6,33.9z"/>
		<path class="st0" d="M31.6,11.1c-0.8-0.5-1.7-0.6-2.4-0.6c-1.7,0-3.5,0.7-4.8,1.9c-1.6,1.6-1.9,3.4-1.6,5.5
			c1.6-0.7,3.2-1.6,4.6-3.1l0.1-0.1L31.6,11.1z"/>
		<path class="st0" d="M21,32.7c1.3-1.4,1.6-2.9,1.4-4.7c-2.4,0.9-4.6,1.9-6.4,3.8c-0.6,0.6-1.2,1.3-2,2c0.9,0.5,1.8,0.7,2.8,0.7
			C18.4,34.5,19.9,33.9,21,32.7z"/>
		<path class="st0" d="M21.2,23.4c-0.2-0.5-0.3-1-0.5-1.5c-0.9,0.2-1.8,0.4-2.6,0.6c-2.3,0.5-4.3,0.9-5.4,2
			c-2.1,2.2-2.4,4.9-0.9,7.1c0.7-0.8,1.4-1.5,2-2.1c2.3-2.4,5.1-3.7,7.9-4.7C21.5,24.5,21.4,23.9,21.2,23.4z"/>
	</g>
</g>
</svg>
